<mxfile host="app.diagrams.net" modified="2023-09-09T03:17:34.612Z" agent="Mozilla/5.0 (Windows NT 10.0; Win64; x64) AppleWebKit/537.36 (KHTML, like Gecko) Chrome/116.0.0.0 Safari/537.36" version="21.6.9" etag="e7fnPa8Ji93LLfF_FAhw" type="github">
  <diagram name="Page-1" id="UpbdkDV6rpVRYyV-KXqq">
    <mxGraphModel>
      <root>
        <mxCell id="0" />
        <mxCell id="1" parent="0" />
      </root>
    </mxGraphModel>
  </diagram>
</mxfile>
